<?xml version="1.0" encoding="UTF-8" standalone="no"?>
<svg
   xmlns:dc="http://purl.org/dc/elements/1.1/"
   xmlns:cc="http://creativecommons.org/ns#"
   xmlns:rdf="http://www.w3.org/1999/02/22-rdf-syntax-ns#"
   xmlns:svg="http://www.w3.org/2000/svg"
   xmlns="http://www.w3.org/2000/svg"
   xmlns:xlink="http://www.w3.org/1999/xlink"
   xmlns:sodipodi="http://sodipodi.sourceforge.net/DTD/sodipodi-0.dtd"
   xmlns:inkscape="http://www.inkscape.org/namespaces/inkscape"
   inkscape:version="1.0 (4035a4fb49, 2020-05-01)"
   sodipodi:docname="features-2.svg"
   version="1.1"
   viewBox="0 0 1145.7 770.58"
   height="770.58"
   width="1145.7"
   data-name="Layer 1"
   id="ec500484-8e35-4be5-8191-25e4427db5df">
  <metadata
     id="metadata132">
    <rdf:RDF>
      <cc:Work
         rdf:about="">
        <dc:format>image/svg+xml</dc:format>
        <dc:type
           rdf:resource="http://purl.org/dc/dcmitype/StillImage" />
      </cc:Work>
    </rdf:RDF>
  </metadata>
  <sodipodi:namedview
     inkscape:current-layer="ec500484-8e35-4be5-8191-25e4427db5df"
     inkscape:window-maximized="1"
     inkscape:window-y="-9"
     inkscape:window-x="2391"
     inkscape:cy="360.09603"
     inkscape:cx="552.34712"
     inkscape:zoom="0.67445752"
     showgrid="false"
     id="namedview130"
     inkscape:window-height="894"
     inkscape:window-width="1280"
     inkscape:pageshadow="2"
     inkscape:pageopacity="0"
     guidetolerance="10"
     gridtolerance="10"
     objecttolerance="10"
     borderopacity="1"
     bordercolor="#666666"
     pagecolor="#ffffff" />
  <defs
     id="defs9">
    <linearGradient
       id="linearGradient981"
       inkscape:collect="always">
      <stop
         id="stop977"
         offset="0"
         style="stop-color:#ffd5e5;stop-opacity:1" />
      <stop
         id="stop979"
         offset="1"
         style="stop-color:#d7f4ee;stop-opacity:1" />
    </linearGradient>
    <linearGradient
       gradientUnits="userSpaceOnUse"
       gradientTransform="matrix(-1, 0, 0, 1, 1540, 0)"
       y2="482.14"
       x2="736.47"
       y1="828.46"
       x1="736.47"
       id="a4d1bb72-7695-4d06-9254-f62b9a81de63">
      <stop
         id="stop2"
         stop-opacity="0.25"
         stop-color="gray"
         offset="0" />
      <stop
         id="stop4"
         stop-opacity="0.12"
         stop-color="gray"
         offset="0.54" />
      <stop
         id="stop6"
         stop-opacity="0.1"
         stop-color="gray"
         offset="1" />
    </linearGradient>
    <linearGradient
       gradientTransform="matrix(0.71864781,0.04528126,-0.04528126,0.71864781,319.04152,-33.355928)"
       gradientUnits="userSpaceOnUse"
       y2="727.00525"
       x2="232.64168"
       y1="417.91077"
       x1="526.258"
       id="linearGradient855"
       xlink:href="#linearGradient891"
       inkscape:collect="always" />
    <linearGradient
       inkscape:collect="always"
       id="linearGradient891">
      <stop
         style="stop-color:#00006e;stop-opacity:1"
         offset="0"
         id="stop887" />
      <stop
         id="stop893"
         offset="0.3265391"
         style="stop-color:#000000;stop-opacity:1" />
      <stop
         style="stop-color:#000000;stop-opacity:0.89878541"
         offset="0.37998736"
         id="stop951" />
      <stop
         style="stop-color:#000000;stop-opacity:1"
         offset="0.70625353"
         id="stop949" />
      <stop
         style="stop-color:#000072;stop-opacity:1"
         offset="1"
         id="stop889" />
    </linearGradient>
    <linearGradient
       gradientUnits="userSpaceOnUse"
       y2="479.675"
       x2="720.54"
       y1="479.675"
       x1="460.79"
       id="linearGradient983"
       xlink:href="#linearGradient981"
       inkscape:collect="always" />
    <filter
       inkscape:collect="always"
       style="color-interpolation-filters:sRGB"
       id="filter993"
       x="-1.08e-05"
       width="1.0000216"
       y="-1.08e-05"
       height="1.0000216">
      <feGaussianBlur
         inkscape:collect="always"
         stdDeviation="4.2930001e-05"
         id="feGaussianBlur995" />
    </filter>
  </defs>
  <title
     id="title11">calling</title>
  <ellipse
     id="ellipse13"
     opacity="0.1"
     fill="#1bb1dc"
     ry="10"
     rx="142"
     cy="760.58"
     cx="771.85" />
  <path
     transform="translate(-27.15 -64.71)"
     id="path15"
     opacity="0.1"
     fill="#1bb1dc"
     d="M1172.85,518.81A268.06,268.06,0,0,1,862.36,783.33H437.65a364.06,364.06,0,0,1-49.5,3.38q-17.83,0-35.23-1.7A360.62,360.62,0,0,1,27.15,425.71c0-199.38,161.63-361,361-361,160.57,0,296.63,104.84,343.52,249.8A266.84,266.84,0,0,1,905,250.91C1052.91,250.91,1172.85,370.85,1172.85,518.81Z" />
  <path
     id="path17"
     opacity="0.1"
     fill="#1bb1dc"
     transform="translate(-27.15 -64.71)"
     d="M1069.94,729.88a268.31,268.31,0,0,1-207.58,53.45H437.65a364.06,364.06,0,0,1-49.5,3.38q-17.83,0-35.23-1.7a361.17,361.17,0,0,1-309-250.21C78.5,460.91,167.34,408.33,271.5,408.33,373,408.33,460,458.27,496.31,529.2a301.82,301.82,0,0,1,54.19-4.87C655.7,524.33,745.27,578,779.09,653a295.63,295.63,0,0,1,86.41-12.71C951.3,640.33,1026.71,676,1069.94,729.88Z" />
  <path
     id="path19"
     fill="#1bb1dc"
     transform="translate(-27.15 -64.71)"
     d="M378.85,737.94c0,25.62-9.83,39.53-25.93,47.07a359.07,359.07,0,0,1-169-61.58,97.08,97.08,0,0,1,7.33-25.25l45.79,14.24-40.78-24a98.13,98.13,0,0,1,20.85-24.94l76.93,23.92L233.77,652a98,98,0,0,1,139.29,52.71l.21.6c.16.45.32.9.47,1.36q.81,2.39,1.49,4.83c.17.58.33,1.16.47,1.75s.29,1.12.42,1.68.24,1,.34,1.46c.07.3.14.6.2.9.11.48.21,1,.3,1.45.14.7.28,1.41.4,2.11s.25,1.46.36,2.19.24,1.62.34,2.44.18,1.46.25,2.19c0,.23.05.45.07.68.07.64.12,1.28.17,1.92a2.11,2.11,0,0,1,0,.25q.09,1.2.15,2.4t.09,2.34a1.69,1.69,0,0,1,0,.23C378.84,736.29,378.85,737.11,378.85,737.94Z" />
  <path
     id="path21"
     opacity="0.1"
     transform="translate(-27.15 -64.71)"
     d="M378.85,737.94c0,25.62-9.83,39.53-25.93,47.07a358.43,358.43,0,0,1-113.44-30.24l1.64-1.09c7.41-4.91,15.07-9.93,23.79-11.6,7.67-1.47,15.58-.23,23.37-.67A54.67,54.67,0,0,0,324.09,725c5.57-5.76,10-12.83,16.65-17.23,7.22-4.74,16.38-5.76,24.94-4.58a66.11,66.11,0,0,1,7.38,1.51l.21.6c.16.45.32.9.47,1.36q.81,2.39,1.49,4.83c.17.58.33,1.16.47,1.75s.29,1.12.42,1.68.24,1,.34,1.46c.07.3.14.6.2.9.11.48.21,1,.3,1.45.14.7.28,1.41.4,2.11s.25,1.46.36,2.19.24,1.62.34,2.44.18,1.46.25,2.19c0,.23.05.45.07.68.07.64.12,1.28.17,1.92a2.11,2.11,0,0,1,0,.25q.09,1.2.15,2.4t.09,2.34a1.69,1.69,0,0,1,0,.23C378.84,736.29,378.85,737.11,378.85,737.94Z" />
  <path
     id="path23"
     fill="#3f3d56"
     transform="translate(-27.15 -64.71)"
     d="M962.65,754.57a37,37,0,0,1-.8,7.76c-.1.48-.21.95-.32,1.41-2.84,11.39-10.85,19.72-20.41,20.25-.32,0-.64,0-1,0-10.11,0-18.66-8.72-21.48-20.73-.08-.32-.15-.64-.22-1a37,37,0,0,1-.8-7.76c0-16.27,10.07-29.45,22.5-29.45S962.65,738.3,962.65,754.57Z" />
  <path
     id="path25"
     opacity="0.1"
     transform="translate(-27.15 -64.71)"
     d="M962.65,754.57a37,37,0,0,1-.8,7.76c-.1.48-.21.95-.32,1.41-.34,0-.67,0-1,0a45.76,45.76,0,0,1-7.36-1,44.92,44.92,0,0,1-6.56,1.5,45.87,45.87,0,0,1-5.14.48q-.87,0-1.74,0a46.41,46.41,0,0,1-6.16-.41,45.17,45.17,0,0,1-9.67-2.4,45.56,45.56,0,0,1-5.22,1.4c-.08-.32-.15-.64-.22-1a37,37,0,0,1-.8-7.76c0-16.27,10.07-29.45,22.5-29.45S962.65,738.3,962.65,754.57Z" />
  <path
     id="path27"
     fill="#1bb1dc"
     transform="translate(-27.15 -64.71)"
     d="M1010.65,699.71a45.54,45.54,0,0,0-4.9-20.61l-26.46,8.23,23.23-13.65a45.71,45.71,0,0,0-34.36-19.59,45.65,45.65,0,0,0-3.57-4.72l-38,11.83,31.17-18.33a45.73,45.73,0,0,0-72,24.39l32.55,37.47L883,679.19a45.74,45.74,0,0,0,40.93,80.7,45.92,45.92,0,0,0,29.28.81A45.78,45.78,0,0,0,1008.78,716c0-1,0-2-.1-3A45.63,45.63,0,0,0,1010.65,699.71Z" />
  <path
     id="path29"
     opacity="0.1"
     transform="translate(-27.15 -64.71)"
     d="M1009.86,708.19a121.9,121.9,0,0,0-42.34-.54c-15.89,2.63-32.13,8.41-47.67,4.19-9.12-2.48-17-8.22-25.91-11.41a49.18,49.18,0,0,0-26.75-1.6,45.76,45.76,0,0,0,56.69,61.06,45.92,45.92,0,0,0,29.28.81A45.78,45.78,0,0,0,1008.78,716c0-1,0-2-.1-3A45.19,45.19,0,0,0,1009.86,708.19Z" />
  <rect
     id="rect31"
     fill="#3a3768"
     rx="2.29"
     height="73.02"
     width="8.86"
     y="250.42"
     x="706.95" />
  <rect
     id="rect33"
     fill="#3a3768"
     rx="2.29"
     height="24.04"
     width="4.97"
     y="193.21"
     x="412.51" />
  <rect
     id="rect35"
     fill="#3a3768"
     rx="2.29"
     height="41.84"
     width="5.6"
     y="237.23"
     x="412.33" />
  <rect
     id="rect37"
     fill="#3a3768"
     rx="2.29"
     height="42.2"
     width="5.33"
     y="293.71"
     x="412.42" />
  <rect
     id="rect39"
     fill="#3f3d56"
     rx="38.990002"
     height="602.39001"
     width="296.39999"
     y="113.77"
     x="415.32999" />
  <rect
     style="fill:#3f2156;fill-opacity:1"
     id="rect41"
     fill="#e6e8ec"
     rx="3.8699999"
     height="8.3999996"
     width="41.389999"
     y="116.34095"
     x="544.64502" />
  <path
     sodipodi:nodetypes="sccccccsccsssss"
     style="fill:url(#linearGradient983);fill-opacity:1"
     transform="translate(-27.15,-64.71)"
     id="path45"
     fill="#1bb1dc"
     d="m 697,194.17 h -33.9 l -18.34714,0.42057 -29.86409,-0.53975 -44.2271,0 -24.62204,0.0156 L 516.16,194.17 h -31.84 c -12.99917,0 -23.53552,10.54083 -23.53,23.54 v 523.93 c -0.006,12.99917 10.53083,23.54 23.53,23.54 H 697 c 13.00078,0 23.54,-10.53922 23.54,-23.54 V 217.71 c 0,-13.00078 -10.53922,-23.54 -23.54,-23.54 z" />
  <path
     id="path87"
     opacity="0.1"
     stroke-width="3"
     stroke-miterlimit="10"
     stroke="#1bb1dc"
     fill="none"
     transform="translate(-27.15 -64.71)"
     d="M431.73,131.1c-2.33-1.35-5.48-.06-7.08,2.11s-2,5-2.45,7.63c-.89,5.91-1.54,12.7,2.45,17.16-6.52-19.77-25.27-34.92-46-37.13" />
  <path
     id="path89"
     opacity="0.1"
     stroke-width="3"
     stroke-miterlimit="10"
     stroke="#1bb1dc"
     fill="none"
     transform="translate(-27.15 -64.71)"
     d="M835.76,457.35c-1.5-.87-3.52,0-4.55,1.36a10.83,10.83,0,0,0-1.58,4.9c-.57,3.81-1,8.17,1.58,11a35.86,35.86,0,0,0-29.55-23.87" />
  <path
     id="path91"
     opacity="0.1"
     stroke-width="3"
     stroke-miterlimit="10"
     stroke="#1bb1dc"
     fill="none"
     transform="translate(-27.15 -64.71)"
     d="M326.26,328.07c-1.5-.86-3.52,0-4.55,1.36a10.83,10.83,0,0,0-1.58,4.91c-.57,3.8-1,8.16,1.58,11a35.88,35.88,0,0,0-29.55-23.87" />
  <path
     id="path93"
     fill="url(#a4d1bb72-7695-4d06-9254-f62b9a81de63)"
     transform="translate(-27.15 -64.71)"
     d="M724,795.68c1,1.89,2.88,3.05,4.69,4.08a222.68,222.68,0,0,0,39.56,17.81,2.64,2.64,0,0,0,3.84-1.49c1.58-2.66,3.31-7,2.9-10.51a5.86,5.86,0,0,0,2.63-3.52,17.5,17.5,0,0,1,2.44-5c1.87-2.82,4.13-5.65,4.43-9.08a15.67,15.67,0,0,1,.35-3.64c.53-1.58,1.94-2.62,3-3.88,1.65-2,2.44-4.58,3.19-7.09,3.12-10.43,6.24-20.86,8.84-31.45.84-3.43,1.62-6.87,2.77-10.2,1-2.92,2.28-5.72,3.55-8.52A226.25,226.25,0,0,1,822,693.87a78.48,78.48,0,0,0,3.39,9.24c.68,1.55,1.41,3.08,2.1,4.63,2.61,5.84,2.14,13.34,5.35,18.83q2,3.38,3.94,6.75a13.59,13.59,0,0,1,1.69,3.57c.21.88.23,1.8.38,2.69.68,4,3.93,6.82,5.73,10.39,1.65,3.26,2,7,3,10.59,2.37,8.3,8.19,15.51,8.78,24.16a62.39,62.39,0,0,1-.17,7A59.36,59.36,0,0,0,857,803.9a4.68,4.68,0,0,0,.32,1.18,35.34,35.34,0,0,1-22,14.86c-1.7.34-3.65.7-4.54,2.26-1.07,1.86.14,4.42,2,5.42s4,.9,6,.72a217.9,217.9,0,0,0,42.37-7.82,3.61,3.61,0,0,0,1.84-1,3.71,3.71,0,0,0,.61-2.49,21,21,0,0,0-2.2-9.31l1-.35c.56-4-1.5-7.87-3.1-11.58-2.78-6.47-4.3-13.46-6.5-20.19-4.24-13-11.09-25.13-12.74-38.73-.45-3.74-1.57-7.54-1.81-11.3-.48-7.66-1-15.36-2.67-22.82-1.4-6.14-3.61-12-5-18.21s-1.84-12.74.2-18.68c.58-1.7,1.36-3.31,1.89-5,2-6.61.09-13.77-1.85-20.41q-.92-3.15-1.82-6.28c-.81-2.75-1.61-5.51-2.49-8.24.12-.11.23-.22.35-.35,1.76-2,1.74-5.06,3-7.45.62-1.23,1.56-2.24,2.22-3.44a12.6,12.6,0,0,0,.91-8.34c-.53-2.8-1.59-5.46-2.39-8.19a44.52,44.52,0,0,1-.48-23c.81-3.23,2-6.4,2.17-9.73a28.38,28.38,0,0,0-.61-6.63c-1.55-8.4-4.59-16.92-10.76-22.47-3.29-3-7.74-5.63-8.09-10.19a2.55,2.55,0,0,0-1.66-.06,17.84,17.84,0,0,1-.56-3.17h.05a4.09,4.09,0,0,0,.92,0,1.83,1.83,0,0,0,.74-.21,2.11,2.11,0,0,0,.36-.27,6.51,6.51,0,0,0,1-1.33c.41-.68.78-1.41,1.09-1.91s.81-1.3,1.2-2q1.75-3,3.25-6.1l0-.08c.1-.19.19-.39.28-.58l.12-.27.18-.41c0-.1.09-.21.13-.31s.11-.25.16-.38l.14-.33c.05-.12.09-.24.14-.37a3.42,3.42,0,0,0,.13-.34c.05-.12.09-.24.13-.36s.08-.23.13-.35.07-.24.11-.36l.12-.36c0-.12.06-.23.1-.35l.1-.37.09-.35.09-.38c0-.11,0-.22.07-.34s0-.26.07-.39,0-.22,0-.33l.06-.39,0-.33c0-.14,0-.27,0-.4s0-.22,0-.33,0-.27,0-.4V502c0-.14,0-.27,0-.41s0-.2,0-.3,0-.28,0-.42,0-.19,0-.28a7.93,7.93,0,0,0-.23-1.16,11.93,11.93,0,0,0-3.92-5.93,24.55,24.55,0,0,0-6-3.61A4.38,4.38,0,0,1,830,489a11.12,11.12,0,0,1-1.19-2.24c-.88-1.54-2.64-2.23-4.29-2.64s-3.42-.67-4.8-1.72a1.27,1.27,0,0,0-.42-.24,1.09,1.09,0,0,0-.61.13L814.84,484a1.83,1.83,0,0,0-2.12-1.51,5.13,5.13,0,0,0-2.49,1.43A.93.93,0,0,1,810,483l-3,2c-.37.24-1.05.3-1-.16a31.28,31.28,0,0,0-4.31,6,12.88,12.88,0,0,0-.94,2.07v0c0,.15-.09.3-.13.45a.29.29,0,0,0,0,.09c0,.13-.06.27-.08.41a.5.5,0,0,0,0,.12c0,.17,0,.35,0,.52h0a5.49,5.49,0,0,0,0,.58,3.19,3.19,0,0,0,1.73,2.66,3.08,3.08,0,0,0,1.2.19,15.48,15.48,0,0,0,2.54-.52,5.86,5.86,0,0,1,.82-.14,2.56,2.56,0,0,1,.39,0,2.21,2.21,0,0,1,1.44.49l.06.06a16.83,16.83,0,0,0-7,13.79,17.34,17.34,0,0,0,1.76,7.64,2.43,2.43,0,0,0-1.25,2.26,7.68,7.68,0,0,1-.41-2.38c-1.64-.33-2.83,1.59-3.42,3.24a80.53,80.53,0,0,0-2.81,11.41c-.51,2.57-1,5.14-1.52,7.71s-1,5.33-1.38,8a61,61,0,0,0,.93,20.79c-.1.22-.19.45-.28.67-.3.8-1.15,1.48-1.25,2.33-.54,5.09,2.68,9.68,5.72,13.67a3,3,0,0,0,1,1,2.7,2.7,0,0,0,1.41.18,36.07,36.07,0,0,0,3.62-.36c.07.68.15,1.35.23,2,.86,7.18,2.33,14.36,2.32,21.59s-1.38,14.56,1.39,21c.46,1.1,1.35,2,1.44,3.14l.17,0a65.29,65.29,0,0,0-4.14,10.74c-1.1,4.34-1.33,8.9-2.56,13.2-1.05,3.65-2.8,7-4.21,10.56a58,58,0,0,0-4,18.11,22.63,22.63,0,0,1-1.7,8.31,84.53,84.53,0,0,0-4.24,9.77c-2,5.94-5.37,11.57-6,17.86-.35,3.56.16,7.36-1.33,10.58-.58,1.26-1.44,2.35-2.12,3.54a28.61,28.61,0,0,0-2.31,6L766.88,777a10.72,10.72,0,0,1-2.42,4.87c-.92.88-2.13,1.36-3,2.27-1.4,1.42-1.75,3.5-1.76,5.62a11.8,11.8,0,0,0-3.06,1,33.71,33.71,0,0,1-26.49,0c-1.6-.69-3.42-1.51-5-.72C723.3,791,723,793.79,724,795.68ZM802.87,547a21.55,21.55,0,0,1,3.28-7.59c2.24-3.69,4.6-7.34,6.74-11.11l.61-.59c.17.48.33,1,.48,1.45a34.91,34.91,0,0,1,.89,3.9,18.79,18.79,0,0,1,.28,5l-.14.11a5.33,5.33,0,0,0-1.89,2.11,4.25,4.25,0,0,0,0,2.64l-.09.1.1-.07c.35,1.38,1,2.8.79,4.2-.23,1.69-1.59,2.92-2.44,4.37-2,3.49-1.36,8.79-4.65,10.93l-.06.14h0a4.74,4.74,0,0,1-3.23-2.66h0C803.8,555.66,802.2,551.28,802.87,547Z" />
  <path
     id="path95"
     fill="#3f3d56"
     transform="translate(-27.15 -64.71)"
     d="M884.91,817.22a3.47,3.47,0,0,1-.63,2.45,3.89,3.89,0,0,1-1.92,1,238.61,238.61,0,0,1-44.14,7.72c-2.14.16-4.4.28-6.29-.71s-3.15-3.52-2-5.35c.93-1.54,3-1.9,4.73-2.23a37,37,0,0,0,23.16-15,10.74,10.74,0,0,1,2.52-2.92c1.92-1.31,4.47-1,6.74-.55,4,.82,9.31,1.79,12.92,3.75S884.85,813.39,884.91,817.22Z" />
  <path
     id="path97"
     opacity="0.1"
     transform="translate(-27.15 -64.71)"
     d="M884.91,817.22a3.47,3.47,0,0,1-.63,2.45,3.89,3.89,0,0,1-1.92,1,238.61,238.61,0,0,1-44.14,7.72c-2.14.16-4.4.28-6.29-.71s-3.15-3.52-2-5.35c.93-1.54,3-1.9,4.73-2.23a37,37,0,0,0,23.16-15,10.74,10.74,0,0,1,2.52-2.92c1.92-1.31,4.47-1,6.74-.55,4,.82,9.31,1.79,12.92,3.75S884.85,813.39,884.91,817.22Z" />
  <path
     id="path99"
     fill="#3f3d56"
     transform="translate(-27.15 -64.71)"
     d="M768.7,816.25a3.55,3.55,0,0,1-1.87,1.72,3.83,3.83,0,0,1-2.13-.25,238.82,238.82,0,0,1-41.22-17.57c-1.88-1-3.84-2.16-4.89-4s-.73-4.67,1.2-5.6c1.62-.78,3.52,0,5.18.71a36.9,36.9,0,0,0,27.6,0,10.69,10.69,0,0,1,3.71-1.08c2.31-.05,4.3,1.58,6,3.21,2.92,2.87,6.83,6.58,8.79,10.18S770.73,813,768.7,816.25Z" />
  <path
     id="path101"
     opacity="0.1"
     transform="translate(-27.15 -64.71)"
     d="M768.7,816.25a3.55,3.55,0,0,1-1.87,1.72,3.83,3.83,0,0,1-2.13-.25,238.82,238.82,0,0,1-41.22-17.57c-1.88-1-3.84-2.16-4.89-4s-.73-4.67,1.2-5.6c1.62-.78,3.52,0,5.18.71a36.9,36.9,0,0,0,27.6,0,10.69,10.69,0,0,1,3.71-1.08c2.31-.05,4.3,1.58,6,3.21,2.92,2.87,6.83,6.58,8.79,10.18S770.73,813,768.7,816.25Z" />
  <path
     id="path103"
     fill="#3f3d56"
     transform="translate(-27.15 -64.71)"
     d="M844.92,624.75c1.49,4,2.74,8,4,12l1.9,6.2c2,6.55,4,13.61,1.93,20.14-.55,1.69-1.36,3.28-2,5-2.12,5.86-1.63,12.37-.21,18.44s3.72,11.9,5.18,18c1.77,7.36,2.28,15,2.78,22.51.25,3.71,1.41,7.46,1.89,11.15,1.72,13.41,8.85,25.43,13.27,38.21,2.29,6.63,3.87,13.52,6.78,19.91,1.66,3.66,3.81,7.45,3.23,11.42-8.13,2.88-17.14,2.83-24.8-1.12a2.54,2.54,0,0,1-1.68-2.33,55.19,55.19,0,0,1-.8-12,58.54,58.54,0,0,0,.17-6.88c-.61-8.53-6.68-15.64-9.14-23.84-1-3.49-1.46-7.22-3.18-10.44-1.88-3.52-5.26-6.33-6-10.25-.16-.88-.18-1.78-.39-2.65a13.28,13.28,0,0,0-1.77-3.53L832,728c-3.35-5.42-2.86-12.82-5.57-18.58-.72-1.53-1.49-3-2.2-4.56a76.37,76.37,0,0,1-3.53-9.12,218.24,218.24,0,0,0-16.5,28.89,89.74,89.74,0,0,0-3.7,8.41c-1.2,3.28-2,6.68-2.89,10.06-2.7,10.45-6,20.74-9.21,31-.78,2.48-1.61,5-3.32,7-1.1,1.24-2.56,2.26-3.12,3.83a14.71,14.71,0,0,0-.36,3.58c-.32,3.39-2.67,6.18-4.62,9a16.89,16.89,0,0,0-2.54,5,5.86,5.86,0,0,1-8,3.75l-.08,0a17.58,17.58,0,0,1-2.28-1.36,42.13,42.13,0,0,1-5.37-4,31,31,0,0,1-4-4.72,2.28,2.28,0,0,1,1.14-3.46h0c-.21-2.78-.27-5.95,1.73-7.87.93-.9,2.19-1.38,3.15-2.24a10.4,10.4,0,0,0,2.52-4.8q5.12-16.12,10.22-32.24a27.41,27.41,0,0,1,2.41-5.94c.71-1.18,1.6-2.25,2.21-3.49,1.55-3.18,1-6.92,1.38-10.44.65-6.21,4.13-11.75,6.24-17.61a81.55,81.55,0,0,1,4.42-9.65,21.16,21.16,0,0,0,1.77-8.19,54.69,54.69,0,0,1,4.16-17.87c1.46-3.48,3.29-6.81,4.38-10.42,1.29-4.24,1.52-8.74,2.68-13a62.48,62.48,0,0,1,4.33-10.64c1.45-3,2.94-6.07,5.33-8.4,3.92-3.82,9.69-5.07,15.16-5.24S839.47,625.32,844.92,624.75Z" />
  <path
     id="path105"
     fill="#a0616a"
     transform="translate(-27.15 -64.71)"
     d="M811.35,546.87q10.56-6.24,20.89-12.88a13.27,13.27,0,0,1-2.61-7.67c0-.11,0-.22,0-.33-.1-2.69.92-5-2.47-4.65a64.36,64.36,0,0,0-9.63,2c-.9.23-8.7,3.1-9,2.81a19.2,19.2,0,0,1,3.77,7.06,34.24,34.24,0,0,1,.93,3.85C813.91,540.5,813.94,544.54,811.35,546.87Z" />
  <path
     id="path107"
     fill="#3f3d56"
     transform="translate(-27.15 -64.71)"
     d="M801.9,593c.9,7.08,2.43,14.17,2.42,21.29s-1.44,14.37,1.45,20.75c.48,1.08,1.4,1.92,1.5,3.1,4,.69,7.9-1.18,11.71-2.53a47.57,47.57,0,0,1,10.8-2.42c3-.3,6.08-.32,9.06-.89a14.1,14.1,0,0,0,7.83-4c1.83-2,1.81-5,3.09-7.35.65-1.21,1.63-2.2,2.32-3.39a11.89,11.89,0,0,0,.94-8.23,83.59,83.59,0,0,0-2.49-8.08,41.53,41.53,0,0,1-.5-22.68c.84-3.19,2.06-6.32,2.26-9.61a26.73,26.73,0,0,0-.63-6.54c-1.62-8.28-4.79-16.69-11.21-22.16-3.43-2.93-8.07-5.56-8.43-10-1.48-.58-3.07.41-4.34,1.35l-14.26,10.51a5.34,5.34,0,0,0-2,2.09c-.89,2.13,1.16,4.47.83,6.77-.24,1.67-1.66,2.88-2.54,4.32-2.1,3.43-1.42,8.66-4.85,10.77-.31.64-.6,1.3-.86,2a48.64,48.64,0,0,0-2.45,10.8A56.2,56.2,0,0,0,801.9,593Z" />
  <path
     id="path109"
     opacity="0.1"
     transform="translate(-27.15 -64.71)"
     d="M808.57,526.17a19.2,19.2,0,0,1,3.77,7.06,15.81,15.81,0,0,0,3.46.38c5.82,0,9.72-6.67,12.61-11.25-.09-2.69,2.14-1.35-1.25-1a64.36,64.36,0,0,0-9.63,2C816.63,523.59,808.83,526.46,808.57,526.17Z" />
  <circle
     id="circle111"
     fill="#a0616a"
     r="16.36"
     cy="451.17"
     cx="788.65" />
  <rect
     id="rect113"
     fill="#3f3d56"
     transform="translate(950.5 1409.59) rotate(-132.39)"
     rx="3.33"
     height="23.86"
     width="12.27"
     y="509.55"
     x="807.92" />
  <rect
     id="rect115"
     opacity="0.1"
     transform="translate(950.5 1409.59) rotate(-132.39)"
     rx="3.33"
     height="23.86"
     width="12.27"
     y="509.55"
     x="807.92" />
  <circle
     id="circle117"
     fill="#fff"
     r="1.36"
     cy="454.24"
     cx="789.67" />
  <path
     id="path119"
     opacity="0.1"
     transform="translate(-27.15 -64.71)"
     d="M801.9,593c12.62-1.86,24.08-9.44,32.85-18.84a14.94,14.94,0,0,0,3.71-5.55,16.76,16.76,0,0,0,.45-5.39L838.7,556c-.09-3.16-.22-6.44-1.75-9.2s-4.94-4.75-7.88-3.6c-7.73,3-12.76,9.86-17.18,16.88a71.9,71.9,0,0,1-4.13,6.35c-.75.95-1.77,1.92-3,1.79a2.26,2.26,0,0,1-.75-.2,48.64,48.64,0,0,0-2.45,10.8A56.2,56.2,0,0,0,801.9,593Z" />
  <path
     id="path121"
     fill="#a0616a"
     transform="translate(-27.15 -64.71)"
     d="M800.77,550.84a20.74,20.74,0,0,1,3.42-7.5c4.89-7.65,10.39-15.12,13-23.83-3.81.69-4.41,7.25-8.27,7.54l.3-4.73c0-.8,0-1.77-.65-2.19s-1.81.13-2.24.92-.52,1.75-.92,2.56-1.34,1.53-2.17,1.17l-.34-1.57a2.4,2.4,0,0,0-2.89,2.44,7.24,7.24,0,0,1-.43-2.35c-1.71-.32-2.95,1.57-3.56,3.2a75.93,75.93,0,0,0-2.94,11.25l-1.57,7.61c-.55,2.63-1.09,5.26-1.45,7.91a57.3,57.3,0,0,0,1.1,21.08,68,68,0,0,0,6.09-3.81c1.51-1.28,3.2-2.73,3.77-4.68C802.43,560.94,799.94,555.79,800.77,550.84Z" />
  <path
     id="path123"
     fill="#3f3d56"
     transform="translate(-27.15 -64.71)"
     d="M829.07,541.16c2.94-1.15,6.35.84,7.88,3.6s1.66,6,1.75,9.2l.2,7.24a16.51,16.51,0,0,1-.44,5.39,15.12,15.12,0,0,1-3.7,5.55c-9.7,10.39-22.67,18.54-36.87,19.23a2.94,2.94,0,0,1-1.47-.18,3.2,3.2,0,0,1-1-1c-3.17-3.94-6.52-8.47-6-13.49.09-.84,1-1.52,1.3-2.3A20.29,20.29,0,0,1,800.55,564l.86-.4a5,5,0,0,0,3.37,2.64c1.2.12,2.23-.84,3-1.79a72.06,72.06,0,0,0,4.13-6.36C816.31,551,821.35,544.17,829.07,541.16Z" />
  <path
     id="path125"
     fill="#3f3d56"
     transform="translate(-27.15 -64.71)"
     d="M828.06,526.58c-1.39-.72-1.61-2.57-1.75-4.13a40.94,40.94,0,0,0-.83-5.4c-.43-2-1.14-4.06-2.84-5.12a4.15,4.15,0,0,0-6.31,3.09,1.41,1.41,0,0,1-.28.93,1,1,0,0,1-.48.25,3.23,3.23,0,0,1-3.79-2.14c-.29-1-.07-2.29-.78-3.11s-1.55-.8-2.24-1.34a3.89,3.89,0,0,1-1.13-3.2c0-1.49.2-3.27-1-4.19-1.81-1.41-4.53.83-6.66,0a3.27,3.27,0,0,1-1.83-3.19,7.92,7.92,0,0,1,1.3-3.66,30.72,30.72,0,0,1,4.49-5.91c0,.44.69.39,1.07.15l3.16-1.92a.85.85,0,0,0,.25.91A5.43,5.43,0,0,1,811,487.2a1.9,1.9,0,0,1,2.21,1.49l4-1.73a.83.83,0,0,1,1.07.11c1.44,1,3.28,1.29,5,1.69s3.55,1.09,4.47,2.61a10.79,10.79,0,0,0,1.25,2.2,4.67,4.67,0,0,0,1.51.89,26.2,26.2,0,0,1,6.3,3.55,11.88,11.88,0,0,1,4.09,5.86c1.08,3.89-.48,8-2.29,11.59a74.25,74.25,0,0,1-4.64,7.95c-.64,1-1.52,2.89-2.55,3.47A4.78,4.78,0,0,1,828.06,526.58Z" />
  <path
     id="path127"
     opacity="0.1"
     transform="translate(-27.15 -64.71)"
     d="M800,498.14c2.13.82,4.85-1.42,6.66,0,1.17.92,1,2.7,1,4.19a3.89,3.89,0,0,0,1.13,3.2c.69.54,1.67.67,2.24,1.34s.49,2.07.78,3.11a3.23,3.23,0,0,0,3.79,2.14,1,1,0,0,0,.48-.25,1.41,1.41,0,0,0,.28-.93,4.15,4.15,0,0,1,6.31-3.09c1.7,1.06,2.41,3.16,2.84,5.12a40.94,40.94,0,0,1,.83,5.4c.14,1.56.36,3.41,1.75,4.13a4.78,4.78,0,0,0,3.42.3c1-.58,1.91-2.5,2.55-3.47a74.25,74.25,0,0,0,4.64-8,24.77,24.77,0,0,0,2.46-6.8c.72,3.68-.76,7.5-2.46,10.89a74.25,74.25,0,0,1-4.64,7.95c-.64,1-1.52,2.89-2.55,3.47a4.78,4.78,0,0,1-3.42-.3c-1.39-.72-1.61-2.57-1.75-4.13a40.94,40.94,0,0,0-.83-5.4c-.43-2-1.14-4.06-2.84-5.12a4.15,4.15,0,0,0-6.31,3.09,1.41,1.41,0,0,1-.28.93,1,1,0,0,1-.48.25,3.23,3.23,0,0,1-3.79-2.14c-.29-1-.07-2.29-.78-3.11s-1.55-.8-2.24-1.34a3.89,3.89,0,0,1-1.13-3.2c0-1.49.2-3.27-1-4.19-1.81-1.41-4.53.83-6.66,0a3.27,3.27,0,0,1-1.83-3.19,5.82,5.82,0,0,1,.5-2.09A2.71,2.71,0,0,0,800,498.14Z" />
  <path
     d="m 678.31217,290.8043 -180.07906,27.57054 145.06713,-11.67166 -66.34348,66.95528 -22.0043,-26.75142 -21.91278,-1.61998 32.42558,39.8512 -112.15596,114.50077 z m -90.79049,96.09324 -11.64045,11.10328 22.37603,26.44128 21.93324,1.31362 z"
     style="fill:url(#linearGradient855);fill-opacity:1;stroke:#000000;stroke-width:0;stroke-linecap:butt;stroke-linejoin:miter;stroke-miterlimit:4;stroke-dasharray:none;stroke-opacity:1;opacity:0.99700002"
     id="path847" />
  <g
     inkscape:label="Layer 1"
     id="layer1"
     inkscape:groupmode="layer">
    <circle
       cx="450.7326"
       cy="147.52597"
       r="4.77"
       fill="#e6e8ec"
       id="circle43"
       style="opacity:0.996;fill:#000000;filter:url(#filter993)" />
  </g>
</svg>
